<svg width="24" height="24" viewBox="0 0 24 24" fill="none" xmlns="http://www.w3.org/2000/svg">
<path d="M3 10H2C2 10.2652 2.10536 10.5196 2.29289 10.7071C2.48043 10.8946 2.73478 11 3 11V10ZM3 14V13C2.73478 13 2.48043 13.1054 2.29289 13.2929C2.10536 13.4804 2 13.7348 2 14H3ZM21 10V11C21.2652 11 21.5196 10.8946 21.7071 10.7071C21.8946 10.5196 22 10.2652 22 10H21ZM21 14H22C22 13.7348 21.8946 13.4804 21.7071 13.2929C21.5196 13.1054 21.2652 13 21 13V14ZM5 6H10V4H5V6ZM10 6H19V4H10V6ZM19 18H10V20H19V18ZM10 18H5V20H10V18ZM9 5V19H11V5H9ZM3.707 11.293C3.89447 11.4805 3.99979 11.7348 3.99979 12C3.99979 12.2652 3.89447 12.5195 3.707 12.707L5.121 14.121C5.68341 13.5584 5.99936 12.7955 5.99936 12C5.99936 11.2045 5.68341 10.4416 5.121 9.879L3.707 11.293ZM20.293 12.707C20.1055 12.5195 20.0002 12.2652 20.0002 12C20.0002 11.7348 20.1055 11.4805 20.293 11.293L18.879 9.879C18.3166 10.4416 18.0006 11.2045 18.0006 12C18.0006 12.7955 18.3166 13.5584 18.879 14.121L20.293 12.707ZM3 11C3.257 11 3.512 11.097 3.707 11.293L5.121 9.879C4.84269 9.60014 4.51207 9.37895 4.1481 9.22811C3.78414 9.07728 3.39398 8.99976 3 9V11ZM4 10V7H2V10H4ZM4 17V14H2V17H4ZM3.707 12.707C3.61436 12.8001 3.50418 12.874 3.38283 12.9243C3.26148 12.9746 3.13136 13.0003 3 13V15C3.766 15 4.536 14.707 5.121 14.121L3.707 12.707ZM20.293 11.293C20.3856 11.1999 20.4958 11.126 20.6172 11.0757C20.7385 11.0254 20.8686 10.9997 21 11V9C20.234 9 19.464 9.293 18.879 9.879L20.293 11.293ZM20 7V10H22V7H20ZM20 14V17H22V14H20ZM21 13C20.8686 13.0003 20.7385 12.9746 20.6172 12.9243C20.4958 12.874 20.3856 12.8001 20.293 12.707L18.879 14.121C19.1573 14.3999 19.4879 14.621 19.8519 14.7719C20.2159 14.9227 20.606 15.0002 21 15V13ZM5 18C4.73478 18 4.48043 17.8946 4.29289 17.7071C4.10536 17.5196 4 17.2652 4 17H2C2 17.7956 2.31607 18.5587 2.87868 19.1213C3.44129 19.6839 4.20435 20 5 20V18ZM19 20C19.7956 20 20.5587 19.6839 21.1213 19.1213C21.6839 18.5587 22 17.7956 22 17H20C20 17.2652 19.8946 17.5196 19.7071 17.7071C19.5196 17.8946 19.2652 18 19 18V20ZM19 6C19.2652 6 19.5196 6.10536 19.7071 6.29289C19.8946 6.48043 20 6.73478 20 7H22C22 6.20435 21.6839 5.44129 21.1213 4.87868C20.5587 4.31607 19.7956 4 19 4V6ZM5 4C4.20435 4 3.44129 4.31607 2.87868 4.87868C2.31607 5.44129 2 6.20435 2 7H4C4 6.73478 4.10536 6.48043 4.29289 6.29289C4.48043 6.10536 4.73478 6 5 6V4Z" fill="currentColor"/>
</svg>
